<svg width="980" height="495" viewBox="0 0 980 495" fill="none" xmlns="http://www.w3.org/2000/svg">
<path d="M469.439 288.246C467.493 288.246 465.915 286.668 465.915 284.722C465.915 282.776 467.493 281.198 469.439 281.198C471.385 281.198 472.963 282.776 472.963 284.722C472.963 286.668 471.385 288.246 469.439 288.246Z" fill="#70C217"/>
<path d="M469.439 339.924C467.493 339.924 465.915 338.347 465.915 336.401C465.915 334.455 467.493 332.877 469.439 332.877C471.385 332.877 472.963 334.455 472.963 336.401C472.963 338.347 471.385 339.924 469.439 339.924Z" fill="#70C217"/>
<path d="M469.439 391.604C467.493 391.604 465.915 390.026 465.915 388.08C465.915 386.134 467.493 384.556 469.439 384.556C471.385 384.556 472.963 386.134 472.963 388.08C472.963 390.026 471.385 391.604 469.439 391.604Z" fill="#70C217"/>
<path d="M469.439 443.283C467.493 443.283 465.915 441.705 465.915 439.759C465.915 437.813 467.493 436.236 469.439 436.236C471.385 436.236 472.963 437.813 472.963 439.759C472.963 441.705 471.385 443.283 469.439 443.283Z" fill="#70C217"/>
<path d="M469.439 494.962C467.493 494.962 465.915 493.384 465.915 491.438C465.915 489.492 467.493 487.915 469.439 487.915C471.385 487.915 472.963 489.492 472.963 491.438C472.963 493.384 471.385 494.962 469.439 494.962Z" fill="#70C217"/>
<path d="M417.76 288.245C415.814 288.245 414.236 286.668 414.236 284.722C414.236 282.776 415.814 281.198 417.76 281.198C419.706 281.198 421.283 282.776 421.283 284.722C421.283 286.668 419.706 288.245 417.76 288.245Z" fill="#70C217"/>
<path d="M417.76 339.924C415.814 339.924 414.236 338.347 414.236 336.401C414.236 334.455 415.814 332.877 417.76 332.877C419.706 332.877 421.283 334.455 421.283 336.401C421.283 338.347 419.706 339.924 417.76 339.924Z" fill="#70C217"/>
<path d="M417.76 391.604C415.814 391.604 414.236 390.026 414.236 388.08C414.236 386.134 415.814 384.556 417.76 384.556C419.706 384.556 421.283 386.134 421.283 388.08C421.283 390.026 419.706 391.604 417.76 391.604Z" fill="#70C217"/>
<path d="M417.76 443.283C415.814 443.283 414.236 441.705 414.236 439.759C414.236 437.813 415.814 436.236 417.76 436.236C419.706 436.236 421.283 437.813 421.283 439.759C421.283 441.705 419.706 443.283 417.76 443.283Z" fill="#70C217"/>
<path d="M417.76 494.962C415.814 494.962 414.236 493.384 414.236 491.438C414.236 489.492 415.814 487.915 417.76 487.915C419.706 487.915 421.283 489.492 421.283 491.438C421.283 493.384 419.706 494.962 417.76 494.962Z" fill="#70C217"/>
<path d="M366.081 288.245C364.135 288.245 362.557 286.668 362.557 284.722C362.557 282.776 364.135 281.198 366.081 281.198C368.027 281.198 369.604 282.776 369.604 284.722C369.604 286.668 368.027 288.245 366.081 288.245Z" fill="#70C217"/>
<path d="M366.081 339.924C364.135 339.924 362.557 338.347 362.557 336.401C362.557 334.455 364.135 332.877 366.081 332.877C368.027 332.877 369.604 334.455 369.604 336.401C369.604 338.347 368.027 339.924 366.081 339.924Z" fill="#70C217"/>
<path d="M366.081 391.604C364.135 391.604 362.557 390.026 362.557 388.08C362.557 386.134 364.135 384.556 366.081 384.556C368.027 384.556 369.604 386.134 369.604 388.08C369.604 390.026 368.027 391.604 366.081 391.604Z" fill="#70C217"/>
<path d="M366.081 443.283C364.135 443.283 362.557 441.705 362.557 439.759C362.557 437.813 364.135 436.236 366.081 436.236C368.027 436.236 369.604 437.813 369.604 439.759C369.604 441.705 368.027 443.283 366.081 443.283Z" fill="#70C217"/>
<path d="M366.081 494.962C364.135 494.962 362.557 493.384 362.557 491.438C362.557 489.492 364.135 487.915 366.081 487.915C368.027 487.915 369.604 489.492 369.604 491.438C369.604 493.384 368.027 494.962 366.081 494.962Z" fill="#70C217"/>
<path d="M314.401 288.245C312.455 288.245 310.878 286.668 310.878 284.722C310.878 282.776 312.455 281.198 314.401 281.198C316.347 281.198 317.925 282.776 317.925 284.722C317.925 286.668 316.347 288.245 314.401 288.245Z" fill="#70C217"/>
<path d="M314.401 339.924C312.455 339.924 310.878 338.347 310.878 336.401C310.878 334.455 312.455 332.877 314.401 332.877C316.347 332.877 317.925 334.455 317.925 336.401C317.925 338.347 316.347 339.924 314.401 339.924Z" fill="#70C217"/>
<path d="M314.401 391.604C312.455 391.604 310.878 390.026 310.878 388.08C310.878 386.134 312.455 384.556 314.401 384.556C316.347 384.556 317.925 386.134 317.925 388.08C317.925 390.026 316.347 391.604 314.401 391.604Z" fill="#70C217"/>
<path d="M314.401 443.283C312.455 443.283 310.878 441.705 310.878 439.759C310.878 437.813 312.455 436.236 314.401 436.236C316.347 436.236 317.925 437.813 317.925 439.759C317.925 441.705 316.347 443.283 314.401 443.283Z" fill="#70C217"/>
<path d="M314.401 494.962C312.455 494.962 310.878 493.384 310.878 491.438C310.878 489.492 312.455 487.915 314.401 487.915C316.347 487.915 317.925 489.492 317.925 491.438C317.925 493.384 316.347 494.962 314.401 494.962Z" fill="#70C217"/>
<path d="M262.722 288.245C260.776 288.245 259.199 286.668 259.199 284.722C259.199 282.776 260.776 281.198 262.722 281.198C264.668 281.198 266.246 282.776 266.246 284.722C266.246 286.668 264.668 288.245 262.722 288.245Z" fill="#70C217"/>
<path d="M262.722 339.924C260.776 339.924 259.199 338.347 259.199 336.401C259.199 334.455 260.776 332.877 262.722 332.877C264.668 332.877 266.246 334.455 266.246 336.401C266.246 338.347 264.668 339.924 262.722 339.924Z" fill="#70C217"/>
<path d="M262.722 391.604C260.776 391.604 259.199 390.026 259.199 388.08C259.199 386.134 260.776 384.556 262.722 384.556C264.668 384.556 266.246 386.134 266.246 388.08C266.246 390.026 264.668 391.604 262.722 391.604Z" fill="#70C217"/>
<path d="M262.722 443.283C260.776 443.283 259.199 441.705 259.199 439.759C259.199 437.813 260.776 436.236 262.722 436.236C264.668 436.236 266.246 437.813 266.246 439.759C266.246 441.705 264.668 443.283 262.722 443.283Z" fill="#70C217"/>
<path d="M262.722 494.962C260.776 494.962 259.199 493.384 259.199 491.438C259.199 489.492 260.776 487.915 262.722 487.915C264.668 487.915 266.246 489.492 266.246 491.438C266.246 493.384 264.668 494.962 262.722 494.962Z" fill="#70C217"/>
<path d="M211.043 288.245C209.097 288.245 207.52 286.668 207.52 284.722C207.52 282.776 209.097 281.198 211.043 281.198C212.989 281.198 214.567 282.776 214.567 284.722C214.567 286.668 212.989 288.245 211.043 288.245Z" fill="#70C217"/>
<path d="M211.043 339.924C209.097 339.924 207.52 338.347 207.52 336.401C207.52 334.455 209.097 332.877 211.043 332.877C212.989 332.877 214.567 334.455 214.567 336.401C214.567 338.347 212.989 339.924 211.043 339.924Z" fill="#70C217"/>
<path d="M211.043 391.604C209.097 391.604 207.52 390.026 207.52 388.08C207.52 386.134 209.097 384.556 211.043 384.556C212.989 384.556 214.567 386.134 214.567 388.08C214.567 390.026 212.989 391.604 211.043 391.604Z" fill="#70C217"/>
<path d="M211.043 443.283C209.097 443.283 207.52 441.705 207.52 439.759C207.52 437.813 209.097 436.236 211.043 436.236C212.989 436.236 214.567 437.813 214.567 439.759C214.567 441.705 212.989 443.283 211.043 443.283Z" fill="#70C217"/>
<path d="M211.043 494.962C209.097 494.962 207.52 493.384 207.52 491.438C207.52 489.492 209.097 487.915 211.043 487.915C212.989 487.915 214.567 489.492 214.567 491.438C214.567 493.384 212.989 494.962 211.043 494.962Z" fill="#70C217"/>
<path d="M159.364 288.245C157.418 288.245 155.84 286.668 155.84 284.722C155.84 282.776 157.418 281.198 159.364 281.198C161.31 281.198 162.887 282.776 162.887 284.722C162.887 286.668 161.31 288.245 159.364 288.245Z" fill="#70C217"/>
<path d="M159.364 339.924C157.418 339.924 155.84 338.347 155.84 336.401C155.84 334.455 157.418 332.877 159.364 332.877C161.31 332.877 162.887 334.455 162.887 336.401C162.887 338.347 161.31 339.924 159.364 339.924Z" fill="#70C217"/>
<path d="M159.364 391.604C157.418 391.604 155.84 390.026 155.84 388.08C155.84 386.134 157.418 384.556 159.364 384.556C161.31 384.556 162.887 386.134 162.887 388.08C162.887 390.026 161.31 391.604 159.364 391.604Z" fill="#70C217"/>
<path d="M159.364 443.283C157.418 443.283 155.84 441.705 155.84 439.759C155.84 437.813 157.418 436.236 159.364 436.236C161.31 436.236 162.887 437.813 162.887 439.759C162.887 441.705 161.31 443.283 159.364 443.283Z" fill="#70C217"/>
<path d="M159.364 494.962C157.418 494.962 155.84 493.384 155.84 491.438C155.84 489.492 157.418 487.915 159.364 487.915C161.31 487.915 162.887 489.492 162.887 491.438C162.887 493.384 161.31 494.962 159.364 494.962Z" fill="#70C217"/>
<path d="M107.685 288.245C105.739 288.245 104.161 286.668 104.161 284.722C104.161 282.776 105.739 281.198 107.685 281.198C109.631 281.198 111.208 282.776 111.208 284.722C111.208 286.668 109.631 288.245 107.685 288.245Z" fill="#70C217"/>
<path d="M107.685 339.924C105.739 339.924 104.161 338.347 104.161 336.401C104.161 334.455 105.739 332.877 107.685 332.877C109.631 332.877 111.208 334.455 111.208 336.401C111.208 338.347 109.631 339.924 107.685 339.924Z" fill="#70C217"/>
<path d="M107.685 391.604C105.739 391.604 104.161 390.026 104.161 388.08C104.161 386.134 105.739 384.556 107.685 384.556C109.631 384.556 111.208 386.134 111.208 388.08C111.208 390.026 109.631 391.604 107.685 391.604Z" fill="#70C217"/>
<path d="M107.685 443.283C105.739 443.283 104.161 441.705 104.161 439.759C104.161 437.813 105.739 436.236 107.685 436.236C109.631 436.236 111.208 437.813 111.208 439.759C111.208 441.705 109.631 443.283 107.685 443.283Z" fill="#70C217"/>
<path d="M107.685 494.962C105.739 494.962 104.161 493.384 104.161 491.438C104.161 489.492 105.739 487.915 107.685 487.915C109.631 487.915 111.208 489.492 111.208 491.438C111.208 493.384 109.631 494.962 107.685 494.962Z" fill="#70C217"/>
<path d="M56.0055 288.245C54.0595 288.245 52.4819 286.668 52.4819 284.722C52.4819 282.776 54.0595 281.198 56.0055 281.198C57.9515 281.198 59.5291 282.776 59.5291 284.722C59.5291 286.668 57.9515 288.245 56.0055 288.245Z" fill="#70C217"/>
<path d="M56.0055 339.924C54.0595 339.924 52.4819 338.347 52.4819 336.401C52.4819 334.455 54.0595 332.877 56.0055 332.877C57.9515 332.877 59.5291 334.455 59.5291 336.401C59.5291 338.347 57.9515 339.924 56.0055 339.924Z" fill="#70C217"/>
<path d="M56.0055 391.604C54.0595 391.604 52.4819 390.026 52.4819 388.08C52.4819 386.134 54.0595 384.556 56.0055 384.556C57.9515 384.556 59.5291 386.134 59.5291 388.08C59.5291 390.026 57.9515 391.604 56.0055 391.604Z" fill="#70C217"/>
<path d="M56.0055 443.283C54.0595 443.283 52.4819 441.705 52.4819 439.759C52.4819 437.813 54.0595 436.236 56.0055 436.236C57.9515 436.236 59.5291 437.813 59.5291 439.759C59.5291 441.705 57.9515 443.283 56.0055 443.283Z" fill="#70C217"/>
<path d="M56.0055 494.962C54.0595 494.962 52.4819 493.384 52.4819 491.438C52.4819 489.492 54.0595 487.915 56.0055 487.915C57.9515 487.915 59.5291 489.492 59.5291 491.438C59.5291 493.384 57.9515 494.962 56.0055 494.962Z" fill="#70C217"/>
<path d="M4.32632 288.245C2.3803 288.245 0.802743 286.668 0.802743 284.722C0.802743 282.776 2.3803 281.198 4.32632 281.198C6.27235 281.198 7.84991 282.776 7.84991 284.722C7.84991 286.668 6.27234 288.245 4.32632 288.245Z" fill="#70C217"/>
<path d="M4.32632 339.924C2.3803 339.924 0.802741 338.347 0.802741 336.401C0.802741 334.455 2.3803 332.877 4.32632 332.877C6.27234 332.877 7.8499 334.455 7.8499 336.401C7.8499 338.347 6.27234 339.924 4.32632 339.924Z" fill="#70C217"/>
<path d="M4.32632 391.604C2.3803 391.604 0.802739 390.026 0.802739 388.08C0.802739 386.134 2.3803 384.556 4.32632 384.556C6.27234 384.556 7.8499 386.134 7.8499 388.08C7.8499 390.026 6.27234 391.604 4.32632 391.604Z" fill="#70C217"/>
<path d="M4.32632 443.283C2.3803 443.283 0.802737 441.705 0.802737 439.759C0.802737 437.813 2.3803 436.236 4.32632 436.236C6.27234 436.236 7.8499 437.813 7.8499 439.759C7.8499 441.705 6.27234 443.283 4.32632 443.283Z" fill="#70C217"/>
<path d="M4.32632 494.962C2.3803 494.962 0.802734 493.384 0.802734 491.438C0.802734 489.492 2.3803 487.915 4.32632 487.915C6.27234 487.915 7.8499 489.492 7.8499 491.438C7.8499 493.384 6.27234 494.962 4.32632 494.962Z" fill="#70C217"/>
<path d="M975.637 7.04762C973.691 7.04762 972.113 5.47006 972.113 3.52404C972.113 1.57802 973.691 0.000458359 975.637 0.000458444C977.583 0.000458529 979.16 1.57802 979.16 3.52404C979.16 5.47006 977.583 7.04762 975.637 7.04762Z" fill="#EF4358"/>
<path d="M975.637 58.7264C973.691 58.7264 972.113 57.1488 972.113 55.2028C972.113 53.2568 973.691 51.6792 975.637 51.6792C977.583 51.6792 979.16 53.2568 979.16 55.2028C979.16 57.1488 977.583 58.7264 975.637 58.7264Z" fill="#EF4358"/>
<path d="M975.637 110.406C973.691 110.406 972.113 108.828 972.113 106.882C972.113 104.936 973.691 103.358 975.637 103.358C977.583 103.358 979.16 104.936 979.16 106.882C979.16 108.828 977.583 110.406 975.637 110.406Z" fill="#EF4358"/>
<path d="M975.637 162.085C973.691 162.085 972.113 160.507 972.113 158.561C972.113 156.615 973.691 155.038 975.637 155.038C977.583 155.038 979.16 156.615 979.16 158.561C979.16 160.507 977.583 162.085 975.637 162.085Z" fill="#EF4358"/>
<path d="M975.637 213.764C973.691 213.764 972.113 212.186 972.113 210.24C972.113 208.294 973.691 206.717 975.637 206.717C977.583 206.717 979.16 208.294 979.16 210.24C979.16 212.186 977.583 213.764 975.637 213.764Z" fill="#EF4358"/>
<path d="M923.958 7.04718C922.012 7.04718 920.434 5.46962 920.434 3.5236C920.434 1.57758 922.012 1.79867e-05 923.958 1.80718e-05C925.904 1.81568e-05 927.481 1.57758 927.481 3.5236C927.481 5.46962 925.904 7.04718 923.958 7.04718Z" fill="#EF4358"/>
<path d="M923.958 58.7264C922.012 58.7264 920.434 57.1488 920.434 55.2028C920.434 53.2568 922.012 51.6792 923.958 51.6792C925.904 51.6792 927.481 53.2568 927.481 55.2028C927.481 57.1488 925.904 58.7264 923.958 58.7264Z" fill="#EF4358"/>
<path d="M923.958 110.406C922.012 110.406 920.434 108.828 920.434 106.882C920.434 104.936 922.012 103.358 923.958 103.358C925.904 103.358 927.481 104.936 927.481 106.882C927.481 108.828 925.904 110.406 923.958 110.406Z" fill="#EF4358"/>
<path d="M923.958 162.085C922.012 162.085 920.434 160.507 920.434 158.561C920.434 156.615 922.012 155.038 923.958 155.038C925.904 155.038 927.481 156.615 927.481 158.561C927.481 160.507 925.904 162.085 923.958 162.085Z" fill="#EF4358"/>
<path d="M923.958 213.764C922.012 213.764 920.434 212.186 920.434 210.24C920.434 208.294 922.012 206.717 923.958 206.717C925.904 206.717 927.481 208.294 927.481 210.24C927.481 212.186 925.904 213.764 923.958 213.764Z" fill="#EF4358"/>
<path d="M872.278 7.04718C870.332 7.04718 868.755 5.46962 868.755 3.5236C868.755 1.57758 870.332 1.57277e-05 872.278 1.58128e-05C874.224 1.58978e-05 875.802 1.57758 875.802 3.5236C875.802 5.46962 874.224 7.04718 872.278 7.04718Z" fill="#EF4358"/>
<path d="M872.278 58.7264C870.332 58.7264 868.755 57.1488 868.755 55.2028C868.755 53.2568 870.332 51.6792 872.278 51.6792C874.224 51.6792 875.802 53.2568 875.802 55.2028C875.802 57.1488 874.224 58.7264 872.278 58.7264Z" fill="#EF4358"/>
<path d="M872.278 110.406C870.332 110.406 868.755 108.828 868.755 106.882C868.755 104.936 870.332 103.358 872.278 103.358C874.224 103.358 875.802 104.936 875.802 106.882C875.802 108.828 874.224 110.406 872.278 110.406Z" fill="#EF4358"/>
<path d="M872.278 162.085C870.332 162.085 868.755 160.507 868.755 158.561C868.755 156.615 870.332 155.038 872.278 155.038C874.224 155.038 875.802 156.615 875.802 158.561C875.802 160.507 874.224 162.085 872.278 162.085Z" fill="#EF4358"/>
<path d="M872.278 213.764C870.332 213.764 868.755 212.186 868.755 210.24C868.755 208.294 870.332 206.717 872.278 206.717C874.224 206.717 875.802 208.294 875.802 210.24C875.802 212.186 874.224 213.764 872.278 213.764Z" fill="#EF4358"/>
<path d="M820.599 7.04718C818.653 7.04718 817.076 5.46961 817.076 3.52359C817.076 1.57757 818.653 1.34688e-05 820.599 1.35538e-05C822.545 1.36389e-05 824.123 1.57757 824.123 3.52359C824.123 5.46962 822.545 7.04718 820.599 7.04718Z" fill="#EF4358"/>
<path d="M820.599 58.7264C818.653 58.7264 817.076 57.1488 817.076 55.2028C817.076 53.2568 818.653 51.6792 820.599 51.6792C822.545 51.6792 824.123 53.2568 824.123 55.2028C824.123 57.1488 822.545 58.7264 820.599 58.7264Z" fill="#EF4358"/>
<path d="M820.599 110.406C818.653 110.406 817.076 108.828 817.076 106.882C817.076 104.936 818.653 103.358 820.599 103.358C822.545 103.358 824.123 104.936 824.123 106.882C824.123 108.828 822.545 110.406 820.599 110.406Z" fill="#EF4358"/>
<path d="M820.599 162.085C818.653 162.085 817.076 160.507 817.076 158.561C817.076 156.615 818.653 155.038 820.599 155.038C822.545 155.038 824.123 156.615 824.123 158.561C824.123 160.507 822.545 162.085 820.599 162.085Z" fill="#EF4358"/>
<path d="M820.599 213.764C818.653 213.764 817.076 212.186 817.076 210.24C817.076 208.294 818.653 206.717 820.599 206.717C822.545 206.717 824.123 208.294 824.123 210.24C824.123 212.186 822.545 213.764 820.599 213.764Z" fill="#EF4358"/>
<path d="M768.92 7.04717C766.974 7.04717 765.396 5.46961 765.396 3.52359C765.396 1.57757 766.974 1.12098e-05 768.92 1.12948e-05C770.866 1.13799e-05 772.444 1.57757 772.444 3.52359C772.444 5.46961 770.866 7.04717 768.92 7.04717Z" fill="#EF4358"/>
<path d="M768.92 58.7264C766.974 58.7264 765.396 57.1488 765.396 55.2028C765.396 53.2568 766.974 51.6792 768.92 51.6792C770.866 51.6792 772.444 53.2568 772.444 55.2028C772.444 57.1488 770.866 58.7264 768.92 58.7264Z" fill="#EF4358"/>
<path d="M768.92 110.406C766.974 110.406 765.396 108.828 765.396 106.882C765.396 104.936 766.974 103.358 768.92 103.358C770.866 103.358 772.444 104.936 772.444 106.882C772.444 108.828 770.866 110.406 768.92 110.406Z" fill="#EF4358"/>
<path d="M768.92 162.085C766.974 162.085 765.396 160.507 765.396 158.561C765.396 156.615 766.974 155.038 768.92 155.038C770.866 155.038 772.444 156.615 772.444 158.561C772.444 160.507 770.866 162.085 768.92 162.085Z" fill="#EF4358"/>
<path d="M768.92 213.764C766.974 213.764 765.396 212.186 765.396 210.24C765.396 208.294 766.974 206.717 768.92 206.717C770.866 206.717 772.444 208.294 772.444 210.24C772.444 212.186 770.866 213.764 768.92 213.764Z" fill="#EF4358"/>
<path d="M717.241 7.04717C715.295 7.04717 713.717 5.46961 713.717 3.52359C713.717 1.57757 715.295 8.95081e-06 717.241 9.03588e-06C719.187 9.12094e-06 720.764 1.57757 720.764 3.52359C720.764 5.46961 719.187 7.04717 717.241 7.04717Z" fill="#EF4358"/>
<path d="M717.241 58.7264C715.295 58.7264 713.717 57.1488 713.717 55.2028C713.717 53.2568 715.295 51.6792 717.241 51.6792C719.187 51.6792 720.764 53.2568 720.764 55.2028C720.764 57.1488 719.187 58.7264 717.241 58.7264Z" fill="#EF4358"/>
<path d="M717.241 110.406C715.295 110.406 713.717 108.828 713.717 106.882C713.717 104.936 715.295 103.358 717.241 103.358C719.187 103.358 720.764 104.936 720.764 106.882C720.764 108.828 719.187 110.406 717.241 110.406Z" fill="#EF4358"/>
<path d="M717.241 162.085C715.295 162.085 713.717 160.507 713.717 158.561C713.717 156.615 715.295 155.038 717.241 155.038C719.187 155.038 720.764 156.615 720.764 158.561C720.764 160.507 719.187 162.085 717.241 162.085Z" fill="#EF4358"/>
<path d="M717.241 213.764C715.295 213.764 713.717 212.186 713.717 210.24C713.717 208.294 715.295 206.717 717.241 206.717C719.187 206.717 720.764 208.294 720.764 210.24C720.764 212.186 719.187 213.764 717.241 213.764Z" fill="#EF4358"/>
<path d="M665.562 7.04717C663.616 7.04717 662.038 5.46961 662.038 3.52359C662.038 1.57757 663.616 6.69184e-06 665.562 6.77691e-06C667.508 6.86197e-06 669.085 1.57757 669.085 3.52359C669.085 5.46961 667.508 7.04717 665.562 7.04717Z" fill="#EF4358"/>
<path d="M665.562 58.7264C663.616 58.7264 662.038 57.1488 662.038 55.2028C662.038 53.2568 663.616 51.6792 665.562 51.6792C667.508 51.6792 669.085 53.2568 669.085 55.2028C669.085 57.1488 667.508 58.7264 665.562 58.7264Z" fill="#EF4358"/>
<path d="M665.562 110.406C663.616 110.406 662.038 108.828 662.038 106.882C662.038 104.936 663.616 103.358 665.562 103.358C667.508 103.358 669.085 104.936 669.085 106.882C669.085 108.828 667.508 110.406 665.562 110.406Z" fill="#EF4358"/>
<path d="M665.562 162.085C663.616 162.085 662.038 160.507 662.038 158.561C662.038 156.615 663.616 155.038 665.562 155.038C667.508 155.038 669.085 156.615 669.085 158.561C669.085 160.507 667.508 162.085 665.562 162.085Z" fill="#EF4358"/>
<path d="M665.562 213.764C663.616 213.764 662.038 212.186 662.038 210.24C662.038 208.294 663.616 206.717 665.562 206.717C667.508 206.717 669.085 208.294 669.085 210.24C669.085 212.186 667.508 213.764 665.562 213.764Z" fill="#EF4358"/>
<path d="M613.882 7.04717C611.936 7.04717 610.359 5.46961 610.359 3.52359C610.359 1.57757 611.936 4.43287e-06 613.882 4.51794e-06C615.828 4.603e-06 617.406 1.57757 617.406 3.52359C617.406 5.46961 615.828 7.04717 613.882 7.04717Z" fill="#EF4358"/>
<path d="M613.882 58.7264C611.936 58.7264 610.359 57.1488 610.359 55.2028C610.359 53.2568 611.936 51.6792 613.882 51.6792C615.828 51.6792 617.406 53.2568 617.406 55.2028C617.406 57.1488 615.828 58.7264 613.882 58.7264Z" fill="#EF4358"/>
<path d="M613.882 110.406C611.936 110.406 610.359 108.828 610.359 106.882C610.359 104.936 611.936 103.358 613.882 103.358C615.828 103.358 617.406 104.936 617.406 106.882C617.406 108.828 615.828 110.406 613.882 110.406Z" fill="#EF4358"/>
<path d="M613.882 162.085C611.936 162.085 610.359 160.507 610.359 158.561C610.359 156.615 611.936 155.038 613.882 155.038C615.828 155.038 617.406 156.615 617.406 158.561C617.406 160.507 615.828 162.085 613.882 162.085Z" fill="#EF4358"/>
<path d="M613.882 213.764C611.936 213.764 610.359 212.186 610.359 210.24C610.359 208.294 611.936 206.717 613.882 206.717C615.828 206.717 617.406 208.294 617.406 210.24C617.406 212.186 615.828 213.764 613.882 213.764Z" fill="#EF4358"/>
<path d="M562.203 7.04716C560.257 7.04716 558.68 5.4696 558.68 3.52358C558.68 1.57756 560.257 2.17391e-06 562.203 2.25897e-06C564.149 2.34403e-06 565.727 1.57756 565.727 3.52358C565.727 5.4696 564.149 7.04717 562.203 7.04716Z" fill="#EF4358"/>
<path d="M562.203 58.7264C560.257 58.7264 558.68 57.1488 558.68 55.2028C558.68 53.2568 560.257 51.6792 562.203 51.6792C564.149 51.6792 565.727 53.2568 565.727 55.2028C565.727 57.1488 564.149 58.7264 562.203 58.7264Z" fill="#EF4358"/>
<path d="M562.203 110.406C560.257 110.406 558.68 108.828 558.68 106.882C558.68 104.936 560.257 103.358 562.203 103.358C564.149 103.358 565.727 104.936 565.727 106.882C565.727 108.828 564.149 110.406 562.203 110.406Z" fill="#EF4358"/>
<path d="M562.203 162.085C560.257 162.085 558.68 160.507 558.68 158.561C558.68 156.615 560.257 155.038 562.203 155.038C564.149 155.038 565.727 156.615 565.727 158.561C565.727 160.507 564.149 162.085 562.203 162.085Z" fill="#EF4358"/>
<path d="M562.203 213.764C560.257 213.764 558.68 212.186 558.68 210.24C558.68 208.294 560.257 206.717 562.203 206.717C564.149 206.717 565.727 208.294 565.727 210.24C565.727 212.186 564.149 213.764 562.203 213.764Z" fill="#EF4358"/>
<path d="M510.524 7.04716C508.578 7.04716 507 5.4696 507 3.52358C507 1.57756 508.578 -8.50632e-08 510.524 0C512.47 8.50632e-08 514.048 1.57756 514.048 3.52358C514.048 5.4696 512.47 7.04716 510.524 7.04716Z" fill="#EF4358"/>
<path d="M510.524 58.7264C508.578 58.7264 507 57.1488 507 55.2028C507 53.2568 508.578 51.6792 510.524 51.6792C512.47 51.6792 514.048 53.2568 514.048 55.2028C514.048 57.1488 512.47 58.7264 510.524 58.7264Z" fill="#EF4358"/>
<path d="M510.524 110.406C508.578 110.406 507 108.828 507 106.882C507 104.936 508.578 103.358 510.524 103.358C512.47 103.358 514.048 104.936 514.048 106.882C514.048 108.828 512.47 110.406 510.524 110.406Z" fill="#EF4358"/>
<path d="M510.524 162.085C508.578 162.085 507 160.507 507 158.561C507 156.615 508.578 155.038 510.524 155.038C512.47 155.038 514.048 156.615 514.048 158.561C514.048 160.507 512.47 162.085 510.524 162.085Z" fill="#EF4358"/>
<path d="M510.524 213.764C508.578 213.764 507 212.186 507 210.24C507 208.294 508.578 206.717 510.524 206.717C512.47 206.717 514.048 208.294 514.048 210.24C514.048 212.186 512.47 213.764 510.524 213.764Z" fill="#EF4358"/>
</svg>
